/* XPM */
static char *e067184b7c514ca9d849354c31073d8fWW9OrvlDfhB3sXVW[] = {
/* columns rows colors chars-per-pixel */
"32 32 214 2 ",
"   c #07070C",
".  c #0A070E",
"X  c #0A080F",
"o  c #0C0611",
"O  c #0D0B12",
"+  c #0F0D19",
"@  c #110D14",
"#  c #100E19",
"$  c #0F111C",
"%  c #131115",
"&  c #1B1416",
"*  c #13131C",
"=  c #1B161A",
"-  c #1C1A1D",
";  c #241C1D",
":  c #261C1D",
">  c #26201F",
",  c #141621",
"<  c #161B24",
"1  c #1A1D24",
"2  c #221D21",
"3  c #1E2226",
"4  c #1D242B",
"5  c #1D2B2E",
"6  c #222124",
"7  c #2D2324",
"8  c #232329",
"9  c #2A2528",
"0  c #242A2D",
"q  c #2B2C2B",
"w  c #382A26",
"e  c #362A29",
"r  c #25352B",
"t  c #29322D",
"y  c #3D362F",
"u  c #202731",
"i  c #242C33",
"p  c #2B3332",
"a  c #2A333B",
"s  c #3B3531",
"d  c #353A37",
"f  c #333B3A",
"g  c #45342C",
"h  c #49392E",
"j  c #413530",
"k  c #4B3730",
"l  c #433A33",
"z  c #4E3A30",
"x  c #38453B",
"c  c #49572E",
"v  c #4D4435",
"b  c #4C4B37",
"n  c #4C443D",
"m  c #4D4C3A",
"M  c #534334",
"N  c #5C4436",
"B  c #57483A",
"V  c #554D3A",
"C  c #4F5735",
"Z  c #5C513D",
"A  c #56583A",
"S  c #634B3C",
"D  c #674B3C",
"F  c #60513E",
"G  c #586436",
"H  c #627136",
"J  c #3B4B45",
"K  c #444545",
"L  c #544C43",
"P  c #574B46",
"I  c #46574E",
"U  c #4A5A4E",
"Y  c #5D5342",
"T  c #5C5648",
"R  c #4C5F59",
"E  c #5C5654",
"W  c #654C42",
"Q  c #635543",
"!  c #6B5444",
"~  c #6A5946",
"^  c #6D564C",
"/  c #635849",
"(  c #6C5D4A",
")  c #765A49",
"_  c #755D4B",
"`  c #665750",
"'  c #6C5C53",
"]  c #735F55",
"[  c #53665D",
"{  c #6C634D",
"}  c #626C49",
"|  c #74634E",
" . c #6A6152",
".. c #6A6559",
"X. c #746452",
"o. c #7B6354",
"O. c #746B54",
"+. c #766359",
"@. c #7B645A",
"#. c #766A5B",
"$. c #7C6B5C",
"%. c #7B725C",
"&. c #5A6C63",
"*. c #5F736B",
"=. c #756762",
"-. c #7D6C61",
";. c #67786F",
":. c #7D7267",
">. c #7C756C",
",. c #6C7B71",
"<. c #856959",
"1. c #856C5C",
"2. c #84755A",
"3. c #81715C",
"4. c #8B705C",
"5. c #826E61",
"6. c #847362",
"7. c #8D7466",
"8. c #8B7B65",
"9. c #877769",
"0. c #8D766B",
"q. c #8C7D6A",
"w. c #917564",
"e. c #957A6C",
"r. c #937C6C",
"t. c #857676",
"y. c #8D7E73",
"u. c #927D72",
"i. c #917F7D",
"p. c #6C8179",
"a. c #72867B",
"s. c #8E816E",
"d. c #95866D",
"f. c #88827C",
"g. c #958673",
"h. c #9C8374",
"j. c #978778",
"k. c #9B867B",
"l. c #9C8C7B",
"z. c #A18875",
"x. c #A48A7C",
"c. c #A5937F",
"v. c #758982",
"b. c #7C8B87",
"n. c #7E918C",
"m. c #8D8585",
"M. c #948B85",
"N. c #9A8C84",
"B. c #9B9184",
"V. c #97968D",
"C. c #889996",
"Z. c #A68F81",
"A. c #A49484",
"S. c #A99283",
"D. c #AA9986",
"F. c #A4968C",
"G. c #AA9689",
"H. c #AB9B8A",
"J. c #B39C8C",
"K. c #B99D8F",
"L. c #AB9B91",
"P. c #B59E97",
"I. c #ACA08A",
"U. c #B2A18F",
"Y. c #B2A194",
"T. c #BCA494",
"R. c #B6A29A",
"E. c #B9A69B",
"W. c #BDAB9B",
"Q. c #96A8A4",
"!. c #99AAA8",
"~. c #9CB1AF",
"^. c #97AFB1",
"/. c #9DB4B4",
"(. c #9FB7B9",
"). c #BEA5A3",
"_. c #BDA9A2",
"`. c #A5B9B8",
"'. c #A4BCBD",
"]. c #C4A79A",
"[. c #C4AB9C",
"{. c #CCB39F",
"}. c #C3AEA3",
"|. c #C9AEAB",
" X c #CCB2A4",
".X c #C5B2AA",
"XX c #CBB4AC",
"oX c #D2B4A8",
"OX c #D4BBAB",
"+X c #CBB6B2",
"@X c #D1B6B4",
"#X c #D5BAB2",
"$X c #D5BDB9",
"%X c #D9BDBB",
"&X c #AAC1BF",
"*X c #D5C2B8",
"=X c #DCC4BB",
"-X c #ACBEC0",
";X c #A9C1C1",
":X c #B1C3C3",
">X c #DBC4C2",
",X c #DAC5C5",
"<X c #DDCAC5",
"1X c #E2CAC4",
"2X c #E3C7C8",
"3X c #E3C9C9",
"4X c #E6D1CB",
"5X c #ECD5CE",
"6X c #EBD7D4",
"7X c #EDD9D7",
"8X c #F1DAD6",
"9X c #F3DEDA",
"0X c #F5E3DF",
"qX c #F6E3E1",
/* pixels */
"X o o . X o o . . X   o X O o o o . o . X . . O # O O o o o o o ",
"X   o o o   . X . o X X X O O O O O o @ o o X o @ @ % O @ % O + ",
". . X . o . o . X O X o o O @ O O @ % @ + o o o O % * * , < - * ",
". X o . o X X O @ o o @ @ % ; ; ; & & % % O O @ % * - 6 3 3 6 3 ",
"X o X X o O o O @ @ & ; > > j g k k e w 7 ; ; * % * 8 6 q q 9 8 ",
"X X o o o X o O % ; ; e g M S W ^ ! D N M g e 6 - % 6 q t p p p ",
"o o o o O o X & ; w z S W ! _ o.o.o._ _ ! N g e 7 > - t d x f f ",
"o o O O + + % ; w k N D ! ) o.1.1.1.o._ ) D N z w 7 1 t K J J J ",
"O + + O % O = 7 g k B ! o.<.4.w.w.w.4.4.<.) N z g e 6 p U U I I ",
"+ + + O % % ; 7 e j Q $.r.k.Z.S.Z.S.Z.k.6.' B l s s q x &.[ [ R ",
"# % O O % @ - 7 e s d K ..k.G.G.J.G.k.-.P P P v y q s U ;.*.*.&.",
"* $ * # * * 7 W o.5.y.f.y.u.r.h.x.z.u.N.L.F.k.w.@.B d &.a.p.,.*.",
"* * % % * 2 j Q ^ +.t.m.N.u.@.7.e.1.u.N.m.i.5.+.@.^ L ,.n.b.v.p.",
"$ * $ * 6 j n M h E L =.t.=.] h.h.@.] t.m.>.` P P Y T ,.C.C.n.v.",
"* * , , 8 l Y +.5.-.9.9.=.' 0.K.T.k.+.$.0.u.7.8.6.+. .b.Q.Q.C.C.",
", , , < 8 n ' 1.7.0.7.w.1.5.x.].].K.7.7.z.z.h.e.e.5. .n././.Q.C.",
", , , 1 0 n $.h.c.J.K.S.7.r.K.oXoX].x.u.[.{.].K.c.u.=.v.`./.~.^.",
"0 < < 4 i L 6.D.T.[.[.J. X].#X5X5X#X X}.J.OXOX XT.l.>.C.;X'.(.^.",
"1 < 4 4 u K 9.J.T.T.].].oX%X1XqX0X1X=X#X X XoX{.].A.f.~.&X;X'./.",
"5 < 4 u i K 9.A.S.T.}.XX@X%X3X7X7X3X1X%X#XOX XT.T.G.M.&X;X'.'.`.",
"i 4 4 u i f 9.g.k.G.R._..X$X,X7X6X<X,X+X.X}.}.T.J.A.V.:X'.'.(./.",
"x 4 4 i i a #.q.N.Y.L.P.).+X@X2X,X@X|.).P.E.}.T.H.B.Q.'.`.~./.^.",
"0 4 4 i i a K >.D.T.P.).|.%X2X2X2X>X%X#X+X}.[.[.A.V.-X`.~.~.!.C.",
"c C r 0 i a f E B.H.R.@X=X6X8X6X8X9X6X4X<XXXE.Y.B.!.!.Q.Q.Q.v.,.",
"H G A } f p f d ..A.H.+X<X7X9X0XqXqX9X6X,X}.P.j.#.X. . . ./ T Y ",
"G c G C b y l n L :.F._.=X4X7X8X9X7X6X<XXXY.B.#.] @.+.X.( ~ ~ Q ",
"g h M B F ! ~ Y V / g.D.E.*X1X5X5X4X*X.XE.H.:.( ~ ( ( ( ( | X.( ",
"h z M Z Q ~ Q Z F / -.A.J.T.XX=X=XOX XU.U.j.X.( _ ~ Q Q Q ( X.X.",
"Z Q Z M v Z Y ~ $.{ %.l.Y.Y.R.W.}._.E.W.H.q.$.X.| ~ ! Q Z Z Q { ",
"{  .Y Z V V Y { $.3.6.8.A.N.M.N.N.M.H.H.j.d.3.| ( | { ~ Q V b b ",
"T V L Y Q Q Y ( O.3.8.d.q.g.l.j.l.g.A.c.l.d.2.3.3.%.O.{ Q Z V b ",
"y l v v V Y { O.O.8.8.d.g.r.D.D.I.D.I.c.l.g.s.s.8.%.%.{ / Y V m "
};
